<svg width="138" height="40" viewBox="0 0 138 40" fill="none" xmlns="http://www.w3.org/2000/svg">
<g clip-path="url(#clip0_1_37)">
<path d="M39.9938 19.7464C39.9286 18.4433 39.3566 17.2173 38.3999 16.3301C37.4432 15.4429 36.1776 14.9648 34.8732 14.9979C33.5689 15.031 32.3292 15.5726 31.4187 16.5072C30.5082 17.4418 29.9991 18.6952 30 19.9999V28.3333C30 27.8913 29.8244 27.4673 29.5119 27.1548C29.1993 26.8422 28.7754 26.6666 28.3334 26.6666H11.6667C11.2247 26.6666 10.8007 26.8422 10.4882 27.1548C10.1756 27.4673 10 27.8913 10 28.3333V19.9999C9.99996 19.0833 9.74791 18.1843 9.27143 17.4012C8.79495 16.6182 8.11237 15.9811 7.2983 15.5598C6.48422 15.1385 5.56999 14.949 4.65552 15.0122C3.74105 15.0753 2.86154 15.3886 2.11312 15.9179C1.3647 16.4471 0.776167 17.1719 0.411857 18.0131C0.0475467 18.8542 -0.0785237 19.7793 0.0474254 20.6873C0.173374 21.5952 0.546496 22.4511 1.12601 23.1613C1.70552 23.8715 2.46912 24.4088 3.33334 24.7143V33.3333C3.33334 33.7753 3.50893 34.1992 3.8215 34.5118C4.13406 34.8244 4.55798 34.9999 5.00001 34.9999H6.66668V38.3333H10V34.9999H30V38.3333H33.3334V34.9999H35C35.4421 34.9999 35.866 34.8244 36.1786 34.5118C36.4911 34.1992 36.6667 33.7753 36.6667 33.3333V24.7143C37.6824 24.3551 38.5549 23.6774 39.1544 22.7823C39.7539 21.8872 40.0483 20.8224 39.9938 19.7464Z" fill="#029FAE"/>
<path d="M11.6667 19.9999V24.9999H28.3334V19.9999C28.3353 18.5224 28.8271 17.0872 29.7319 15.919C30.6366 14.7508 31.9032 13.9157 33.3334 13.5443V9.99994C33.3309 7.79057 32.4521 5.67239 30.8899 4.11013C29.3276 2.54786 27.2094 1.66909 25 1.66661H15C12.7907 1.66909 10.6725 2.54786 9.11023 4.11013C7.54797 5.67239 6.6692 7.79057 6.66672 9.99994V13.5443C8.09686 13.9157 9.36347 14.7508 10.2682 15.919C11.173 17.0872 11.6648 18.5224 11.6667 19.9999ZM23.3334 8.33328C23.663 8.33328 23.9852 8.43102 24.2593 8.61416C24.5334 8.7973 24.747 9.05759 24.8732 9.36214C24.9993 9.66668 25.0323 10.0018 24.968 10.3251C24.9037 10.6484 24.745 10.9454 24.5119 11.1785C24.2788 11.4115 23.9818 11.5703 23.6585 11.6346C23.3352 11.6989 23.0001 11.6659 22.6956 11.5397C22.391 11.4136 22.1307 11.2 21.9476 10.9259C21.7645 10.6518 21.6667 10.3296 21.6667 9.99994C21.6667 9.55792 21.8423 9.13399 22.1549 8.82143C22.4674 8.50887 22.8914 8.33328 23.3334 8.33328ZM23.3334 13.3333C23.663 13.3333 23.9852 13.431 24.2593 13.6142C24.5334 13.7973 24.747 14.0576 24.8732 14.3621C24.9993 14.6667 25.0323 15.0018 24.968 15.3251C24.9037 15.6484 24.745 15.9454 24.5119 16.1785C24.2788 16.4115 23.9818 16.5703 23.6585 16.6346C23.3352 16.6989 23.0001 16.6659 22.6956 16.5397C22.391 16.4136 22.1307 16.2 21.9476 15.9259C21.7645 15.6518 21.6667 15.3296 21.6667 14.9999C21.6667 14.5579 21.8423 14.134 22.1549 13.8214C22.4674 13.5089 22.8914 13.3333 23.3334 13.3333ZM16.6667 8.33328C16.9964 8.33328 17.3186 8.43102 17.5927 8.61416C17.8667 8.7973 18.0804 9.05759 18.2065 9.36214C18.3327 9.66668 18.3657 10.0018 18.3014 10.3251C18.237 10.6484 18.0783 10.9454 17.8452 11.1785C17.6121 11.4115 17.3152 11.5703 16.9919 11.6346C16.6686 11.6989 16.3335 11.6659 16.0289 11.5397C15.7244 11.4136 15.4641 11.2 15.2809 10.9259C15.0978 10.6518 15 10.3296 15 9.99994C15 9.55792 15.1756 9.13399 15.4882 8.82143C15.8008 8.50887 16.2247 8.33328 16.6667 8.33328ZM16.6667 13.3333C16.9964 13.3333 17.3186 13.431 17.5927 13.6142C17.8667 13.7973 18.0804 14.0576 18.2065 14.3621C18.3327 14.6667 18.3657 15.0018 18.3014 15.3251C18.237 15.6484 18.0783 15.9454 17.8452 16.1785C17.6121 16.4115 17.3152 16.5703 16.9919 16.6346C16.6686 16.6989 16.3335 16.6659 16.0289 16.5397C15.7244 16.4136 15.4641 16.2 15.2809 15.9259C15.0978 15.6518 15 15.3296 15 14.9999C15 14.5579 15.1756 14.134 15.4882 13.8214C15.8008 13.5089 16.2247 13.3333 16.6667 13.3333Z" fill="#029FAE"/>
</g>
<path d="M50.0774 29.5V10.5909H61.8033V13.0469H52.9304V18.8082H60.9631V21.255H52.9304V29.5H50.0774ZM65.0902 29.5V15.3182H67.8509V29.5H65.0902ZM66.4844 13.13C66.0043 13.13 65.5919 12.9699 65.2472 12.6499C64.9086 12.3236 64.7393 11.9358 64.7393 11.4865C64.7393 11.031 64.9086 10.6432 65.2472 10.3232C65.5919 9.99692 66.0043 9.83381 66.4844 9.83381C66.9645 9.83381 67.3738 9.99692 67.7124 10.3232C68.0571 10.6432 68.2294 11.031 68.2294 11.4865C68.2294 11.9358 68.0571 12.3236 67.7124 12.6499C67.3738 12.9699 66.9645 13.13 66.4844 13.13ZM74.3255 21.0795V29.5H71.5648V15.3182H74.2147V17.6264H74.3901C74.7163 16.8755 75.2272 16.2723 75.9228 15.8168C76.6245 15.3613 77.5078 15.1335 78.5726 15.1335C79.539 15.1335 80.3854 15.3366 81.1117 15.7429C81.838 16.143 82.4012 16.7401 82.8013 17.5341C83.2014 18.3281 83.4015 19.3099 83.4015 20.4794V29.5H80.6408V20.8118C80.6408 19.7839 80.373 18.9806 79.8375 18.402C79.302 17.8172 78.5665 17.5249 77.6309 17.5249C76.9907 17.5249 76.4213 17.6634 75.9228 17.9403C75.4303 18.2173 75.0395 18.6236 74.7502 19.1591C74.467 19.6884 74.3255 20.3286 74.3255 21.0795ZM92.4128 29.777C91.2679 29.777 90.2462 29.4846 89.3475 28.8999C88.455 28.3089 87.7533 27.4687 87.2424 26.3793C86.7376 25.2836 86.4853 23.9695 86.4853 22.4368C86.4853 20.9041 86.7407 19.593 87.2516 18.5036C87.7686 17.4141 88.4765 16.58 89.3752 16.0014C90.2739 15.4228 91.2926 15.1335 92.4313 15.1335C93.3115 15.1335 94.0194 15.2812 94.5549 15.5767C95.0965 15.866 95.5151 16.2045 95.8105 16.5923C96.1122 16.9801 96.3461 17.3217 96.5123 17.6172H96.6784V10.5909H99.4391V29.5H96.7431V27.2933H96.5123C96.3461 27.5949 96.106 27.9396 95.7921 28.3274C95.4843 28.7152 95.0596 29.0537 94.5179 29.343C93.9763 29.6323 93.2746 29.777 92.4128 29.777ZM93.0222 27.4226C93.8162 27.4226 94.4872 27.2133 95.035 26.7947C95.589 26.37 96.0075 25.7822 96.2907 25.0312C96.58 24.2803 96.7246 23.4062 96.7246 22.4091C96.7246 21.4242 96.583 20.5625 96.2999 19.8239C96.0167 19.0852 95.6013 18.5097 95.0534 18.0973C94.5056 17.6849 93.8285 17.4787 93.0222 17.4787C92.1912 17.4787 91.4988 17.6941 90.9448 18.125C90.3908 18.5559 89.9722 19.1437 89.6891 19.8885C89.4121 20.6333 89.2736 21.4735 89.2736 22.4091C89.2736 23.357 89.4152 24.2095 89.6983 24.9666C89.9815 25.7237 90.4 26.3239 90.954 26.767C91.5141 27.2041 92.2035 27.4226 93.0222 27.4226ZM115.761 10.5909H118.623V23.0277C118.623 24.3511 118.312 25.5237 117.69 26.5455C117.069 27.5611 116.195 28.3613 115.068 28.946C113.942 29.5246 112.621 29.8139 111.107 29.8139C109.599 29.8139 108.282 29.5246 107.156 28.946C106.029 28.3613 105.155 27.5611 104.533 26.5455C103.912 25.5237 103.601 24.3511 103.601 23.0277V10.5909H106.454V22.7969C106.454 23.6525 106.642 24.4126 107.017 25.0774C107.399 25.7422 107.937 26.2654 108.633 26.647C109.328 27.0225 110.153 27.2102 111.107 27.2102C112.067 27.2102 112.895 27.0225 113.591 26.647C114.293 26.2654 114.828 25.7422 115.197 25.0774C115.573 24.4126 115.761 23.6525 115.761 22.7969V10.5909ZM133.084 15.5582C132.985 14.6842 132.579 14.0071 131.865 13.527C131.151 13.0407 130.253 12.7976 129.169 12.7976C128.394 12.7976 127.723 12.9207 127.156 13.1669C126.59 13.407 126.15 13.7393 125.836 14.1641C125.528 14.5826 125.374 15.0597 125.374 15.5952C125.374 16.0445 125.479 16.4323 125.688 16.7585C125.904 17.0848 126.184 17.3587 126.529 17.5803C126.879 17.7957 127.255 17.9773 127.655 18.125C128.055 18.2666 128.44 18.3835 128.809 18.4759L130.656 18.956C131.259 19.1037 131.878 19.3037 132.512 19.5561C133.146 19.8085 133.733 20.1409 134.275 20.5533C134.817 20.9657 135.254 21.4766 135.586 22.0859C135.925 22.6953 136.094 23.4247 136.094 24.2741C136.094 25.3452 135.817 26.2962 135.263 27.1271C134.715 27.9581 133.918 28.6136 132.872 29.0938C131.831 29.5739 130.573 29.8139 129.095 29.8139C127.68 29.8139 126.455 29.5893 125.421 29.1399C124.387 28.6906 123.577 28.0535 122.992 27.2287C122.408 26.3977 122.084 25.4129 122.023 24.2741H124.885C124.941 24.9574 125.162 25.5268 125.55 25.9822C125.944 26.4316 126.445 26.767 127.055 26.9886C127.67 27.2041 128.344 27.3118 129.077 27.3118C129.883 27.3118 130.6 27.1856 131.228 26.9332C131.862 26.6747 132.361 26.3177 132.724 25.8622C133.087 25.4006 133.269 24.862 133.269 24.2464C133.269 23.6863 133.109 23.2277 132.789 22.8707C132.475 22.5137 132.047 22.2183 131.505 21.9844C130.97 21.7505 130.363 21.5443 129.686 21.3658L127.452 20.7564C125.938 20.344 124.737 19.7377 123.851 18.9375C122.971 18.1373 122.531 17.0786 122.531 15.7614C122.531 14.6719 122.826 13.7209 123.417 12.9084C124.008 12.0959 124.808 11.465 125.818 11.0156C126.827 10.5601 127.966 10.3324 129.234 10.3324C130.514 10.3324 131.644 10.5571 132.622 11.0064C133.607 11.4557 134.383 12.0743 134.949 12.8622C135.515 13.6439 135.811 14.5426 135.835 15.5582H133.084Z" fill="#272343"/>
<defs>
<clipPath id="clip0_1_37">
<rect width="40" height="40" fill="white"/>
</clipPath>
</defs>
</svg>
